<svg width="36" height="36" viewBox="0 0 36 36" fill="none" xmlns="http://www.w3.org/2000/svg">
<path fill-rule="evenodd" clip-rule="evenodd" d="M6.89671 5.65831C4.09837 7.47664 2.58337 9.84164 2.58337 12.2716C2.58337 14.7 4.10004 17.065 6.89671 18.8833C9.68004 20.6933 13.6034 21.855 18 21.855C22.3967 21.855 26.3184 20.6933 29.1034 18.8833C31.9017 17.065 33.4167 14.7 33.4167 12.2716C33.4167 9.84164 31.9 7.47664 29.1034 5.65831C26.32 3.84998 22.3967 2.68831 18 2.68831C13.6034 2.68831 9.68171 3.84831 6.89671 5.65831ZM5.53337 3.56165C8.78004 1.45165 13.1917 0.186646 18 0.186646C22.8084 0.186646 27.22 1.45331 30.4667 3.56165C33.7 5.66498 35.9167 8.71664 35.9167 12.2716C35.9167 15.825 33.7 18.8766 30.4667 20.9783C27.22 23.09 22.8084 24.3533 18 24.3533C13.1917 24.3533 8.78004 23.09 5.53337 20.98C2.30004 18.8766 0.083374 15.825 0.083374 12.27C0.083374 8.71664 2.30004 5.66498 5.53337 3.56165Z" fill="#262522"/>
<path fill-rule="evenodd" clip-rule="evenodd" d="M1.24162 10.8166C1.57199 10.7923 1.89851 10.9001 2.14945 11.1163C2.40039 11.3326 2.55523 11.6396 2.57995 11.97L3.13829 19.5116C3.41384 23.2648 5.09924 26.7748 7.85599 29.3365C10.6127 31.8983 14.2367 33.3222 18 33.3222C21.7632 33.3222 25.3872 31.8983 28.1439 29.3365C30.9007 26.7748 32.5861 23.2648 32.8616 19.5116L33.42 11.97C33.4443 11.6393 33.5989 11.3319 33.8499 11.1153C34.1009 10.8987 34.4277 10.7906 34.7583 10.815C35.0889 10.8393 35.3964 10.9939 35.613 11.2449C35.8296 11.4959 35.9376 11.8226 35.9133 12.1533L35.355 19.6966C35.0333 24.0796 33.0652 28.1785 29.846 31.1702C26.6267 34.1619 22.3947 35.8247 18 35.8247C13.6052 35.8247 9.37321 34.1619 6.15395 31.1702C2.93468 28.1785 0.96659 24.0796 0.644953 19.6966L0.0866199 12.155C0.0745777 11.9912 0.0949008 11.8268 0.146429 11.6709C0.197956 11.515 0.279679 11.3708 0.386932 11.2466C0.494184 11.1223 0.624866 11.0204 0.771513 10.9466C0.918161 10.8728 1.0779 10.8287 1.24162 10.8166Z" fill="#262522"/>
<path fill-rule="evenodd" clip-rule="evenodd" d="M9.66662 7.58331C9.3351 7.58331 9.01716 7.715 8.78274 7.94943C8.54832 8.18385 8.41662 8.50179 8.41662 8.83331C8.41662 9.16483 8.54832 9.48277 8.78274 9.71719C9.01716 9.95161 9.3351 10.0833 9.66662 10.0833C9.99814 10.0833 10.3161 9.95161 10.5505 9.71719C10.7849 9.48277 10.9166 9.16483 10.9166 8.83331C10.9166 8.50179 10.7849 8.18385 10.5505 7.94943C10.3161 7.715 9.99814 7.58331 9.66662 7.58331ZM5.91662 8.83331C5.91662 8.34085 6.01362 7.85322 6.20207 7.39825C6.39053 6.94328 6.66675 6.52988 7.01497 6.18166C7.36319 5.83344 7.77659 5.55722 8.23156 5.36876C8.68653 5.18031 9.17416 5.08331 9.66662 5.08331C10.1591 5.08331 10.6467 5.18031 11.1017 5.36876C11.5567 5.55722 11.9701 5.83344 12.3183 6.18166C12.6665 6.52988 12.9427 6.94328 13.1312 7.39825C13.3196 7.85322 13.4166 8.34085 13.4166 8.83331C13.4166 9.82787 13.0215 10.7817 12.3183 11.485C11.615 12.1882 10.6612 12.5833 9.66662 12.5833C8.67206 12.5833 7.71823 12.1882 7.01497 11.485C6.31171 10.7817 5.91662 9.82787 5.91662 8.83331ZM28.8333 10.9166C28.5018 10.9166 28.1838 11.0483 27.9494 11.2828C27.715 11.5172 27.5833 11.8351 27.5833 12.1666C27.5833 12.4982 27.715 12.8161 27.9494 13.0505C28.1838 13.2849 28.5018 13.4166 28.8333 13.4166C29.1648 13.4166 29.4827 13.2849 29.7172 13.0505C29.9516 12.8161 30.0833 12.4982 30.0833 12.1666C30.0833 11.8351 29.9516 11.5172 29.7172 11.2828C29.4827 11.0483 29.1648 10.9166 28.8333 10.9166ZM25.0833 12.1666C25.0833 11.1721 25.4784 10.2183 26.1816 9.51499C26.8849 8.81173 27.8387 8.41664 28.8333 8.41664C29.8278 8.41664 30.7817 8.81173 31.4849 9.51499C32.1882 10.2183 32.5833 11.1721 32.5833 12.1666C32.5833 13.1612 32.1882 14.115 31.4849 14.8183C30.7817 15.5216 29.8278 15.9166 28.8333 15.9166C27.8387 15.9166 26.8849 15.5216 26.1816 14.8183C25.4784 14.115 25.0833 13.1612 25.0833 12.1666ZM21.2766 6.15664C20.7366 6.33664 20.09 6.76498 19.5316 7.44998C18.9733 8.13331 18.6833 8.85331 18.6166 9.41998C18.5483 10.0033 18.72 10.2416 18.8083 10.315C18.8983 10.3866 19.165 10.5066 19.7216 10.3216C20.2633 10.1433 20.91 9.71498 21.4683 9.02998C22.0266 8.34664 22.3166 7.62498 22.3833 7.05831C22.4516 6.47498 22.28 6.23831 22.1916 6.16498C22.1016 6.09331 21.835 5.97331 21.2766 6.15664ZM20.4916 3.78498C21.5333 3.43998 22.7916 3.42831 23.7716 4.22831C24.7516 5.02831 24.995 6.26164 24.8666 7.35164C24.7366 8.45831 24.2183 9.61331 23.4066 10.61C22.5933 11.605 21.5666 12.345 20.5083 12.695C19.4666 13.04 18.2083 13.0516 17.2283 12.2516C16.2483 11.4516 16.005 10.2183 16.1333 9.12831C16.2633 8.02164 16.7816 6.86664 17.5933 5.86998C18.4066 4.87331 19.4333 4.13498 20.4916 3.78498ZM13.7883 11.75C13.9941 11.75 14.1967 11.8008 14.3781 11.8979C14.5595 11.995 14.7141 12.1354 14.8283 12.3066L18.1616 17.3066C18.2871 17.4949 18.3592 17.7137 18.3701 17.9396C18.381 18.1656 18.3304 18.3903 18.2236 18.5898C18.1169 18.7892 17.958 18.956 17.7639 19.0723C17.5699 19.1885 17.3479 19.25 17.1216 19.25H10.455C10.2287 19.25 10.0067 19.1885 9.81265 19.0723C9.61857 18.956 9.45969 18.7892 9.35294 18.5898C9.24619 18.3903 9.19558 18.1656 9.2065 17.9396C9.21742 17.7137 9.28947 17.4949 9.41495 17.3066L12.7483 12.3066C12.8624 12.1354 13.0171 11.995 13.1985 11.8979C13.3799 11.8008 13.5825 11.75 13.7883 11.75ZM12.79 16.75H14.785L13.7883 15.2533L12.79 16.75ZM21.2883 15.0833C21.6198 15.0833 21.9377 15.215 22.1722 15.4494C22.4066 15.6838 22.5383 16.0018 22.5383 16.3333V19.6666C22.5383 19.9982 22.4066 20.3161 22.1722 20.5505C21.9377 20.7849 21.6198 20.9166 21.2883 20.9166C20.9568 20.9166 20.6388 20.7849 20.4044 20.5505C20.17 20.3161 20.0383 19.9982 20.0383 19.6666V16.3333C20.0383 16.0018 20.17 15.6838 20.4044 15.4494C20.6388 15.215 20.9568 15.0833 21.2883 15.0833ZM24.6216 14.25C24.9531 14.25 25.2711 14.3817 25.5055 14.6161C25.7399 14.8505 25.8716 15.1685 25.8716 15.5V18.8333C25.8716 19.1648 25.7399 19.4828 25.5055 19.7172C25.2711 19.9516 24.9531 20.0833 24.6216 20.0833C24.2901 20.0833 23.9722 19.9516 23.7377 19.7172C23.5033 19.4828 23.3716 19.1648 23.3716 18.8333V15.5C23.3716 15.1685 23.5033 14.8505 23.7377 14.6161C23.9722 14.3817 24.2901 14.25 24.6216 14.25ZM4.56995 12.95C4.68604 12.8338 4.82387 12.7417 4.97558 12.6788C5.12729 12.6159 5.2899 12.5836 5.45412 12.5836C5.61834 12.5836 5.78095 12.6159 5.93266 12.6788C6.08437 12.7417 6.2222 12.8338 6.33829 12.95L8.83829 15.45C8.9611 15.5644 9.0596 15.7024 9.12792 15.8557C9.19624 16.0091 9.23298 16.1746 9.23594 16.3424C9.2389 16.5103 9.20803 16.677 9.14516 16.8326C9.08229 16.9883 8.98872 17.1297 8.87002 17.2484C8.75132 17.3671 8.60993 17.4606 8.45428 17.5235C8.29864 17.5864 8.13192 17.6173 7.96408 17.6143C7.79625 17.6113 7.63072 17.5746 7.47739 17.5063C7.32406 17.438 7.18606 17.3395 7.07162 17.2166L4.57162 14.7166C4.33754 14.4823 4.20605 14.1646 4.20605 13.8333C4.20605 13.5021 4.33754 13.1844 4.57162 12.95H4.56995Z" fill="#262522"/>
</svg>
